<svg width="35" height="35" viewBox="0 0 35 35" fill="none" xmlns="http://www.w3.org/2000/svg">
<rect x="0.802111" y="33.8007" width="33" height="33" rx="16.5" transform="rotate(-90.5167 0.802111 33.8007)" stroke="url(#paint0_linear_74_56)"/>
<path fill-rule="evenodd" clip-rule="evenodd" d="M16.363 13.465C16.5584 13.2677 16.8248 13.1554 17.1036 13.1529C17.3824 13.1504 17.6508 13.2578 17.8498 13.4516L23.8512 19.2988C23.9525 19.3941 24.0337 19.5085 24.0899 19.6353C24.1462 19.762 24.1764 19.8987 24.1789 20.0372C24.1813 20.1756 24.156 20.3132 24.1043 20.4419C24.0525 20.5706 23.9755 20.6878 23.8777 20.7866C23.7798 20.8854 23.6631 20.9639 23.5344 21.0175C23.4056 21.0712 23.2674 21.0988 23.1278 21.0989C22.9882 21.0989 22.8499 21.0714 22.7211 21.0179C22.5924 20.9644 22.4756 20.8859 22.3777 20.7872L17.1263 15.6707L11.9681 20.8811C11.7715 21.0729 11.5068 21.1804 11.2311 21.1805C10.9554 21.1806 10.6906 21.0733 10.494 20.8816C10.2973 20.69 10.1843 20.4294 10.1794 20.1559C10.1746 19.8824 10.2782 19.618 10.468 19.4195L16.363 13.465Z" fill="white"/>
<defs>
<linearGradient id="paint0_linear_74_56" x1="2.5217" y1="34.3052" x2="39.724" y2="53.5536" gradientUnits="userSpaceOnUse">
<stop stop-color="#00FFFF"/>
<stop offset="0.786521" stop-color="#6E00FF"/>
</linearGradient>
</defs>
</svg>
