<svg width="34" height="35" viewBox="0 0 34 35" fill="none" xmlns="http://www.w3.org/2000/svg">
<rect x="0.5" y="1" width="33" height="33" rx="16.5" stroke="url(#paint0_linear_74_39)"/>
<path fill-rule="evenodd" clip-rule="evenodd" d="M20.6946 16.7437C20.8901 16.9408 21 17.2083 21 17.4871C21 17.7659 20.8901 18.0333 20.6946 18.2305L14.7935 24.179C14.6972 24.2794 14.5821 24.3595 14.4549 24.4146C14.3276 24.4697 14.1907 24.4987 14.0522 24.5C13.9137 24.5012 13.7763 24.4746 13.6481 24.4217C13.5199 24.3688 13.4035 24.2907 13.3055 24.192C13.2076 24.0933 13.1301 23.9759 13.0777 23.8467C13.0252 23.7174 12.9988 23.579 13 23.4393C13.0012 23.2997 13.03 23.1617 13.0847 23.0334C13.1394 22.9052 13.2188 22.7891 13.3185 22.6921L18.4821 17.4871L13.3185 12.282C13.1284 12.0837 13.0233 11.8181 13.0257 11.5424C13.0281 11.2667 13.1378 11.0029 13.3312 10.808C13.5246 10.613 13.7862 10.5024 14.0597 10.5C14.3332 10.4976 14.5967 10.6036 14.7935 10.7952L20.6946 16.7437Z" fill="white"/>
<defs>
<linearGradient id="paint0_linear_74_39" x1="2.21506" y1="0.500002" x2="39.4174" y2="19.7484" gradientUnits="userSpaceOnUse">
<stop stop-color="#00FFFF"/>
<stop offset="0.786521" stop-color="#6E00FF"/>
</linearGradient>
</defs>
</svg>
